<svg xmlns="http://www.w3.org/2000/svg" width="280.896" height="279.163" viewBox="0 0 280.896 279.163"><g transform="translate(0.262 0.791)"><path d="M52,.464c-57.681,10.192-70.8,90.2-22,120.47C48.539,132.435,70.173,130,91,130h91c15.9,0,33.424,2.06,49-1.425,55.614-12.445,68.068-90.868,19-120.122C230.876-2.948,208.326,0,187,0H97C82.52,0,66.266-2.057,52,.464Z" fill="#f33"/><path d="M67,32v1h3l-3-1m41,0v1h3l-3-1m100,0v1h6l-6-1M64,33l1,1Z" fill="#ff9b9b"/><path d="M77,64,91,78c4.524,4.524,9.528,11.455,16,13.156,7.237,1.9,12.874-5.4,10.4-12.156-1.875-5.114-7.648-9.251-11.4-13-9.243-9.243-21.679-27.615-34-32.257C66.578,31.7,61.489,34.7,59.8,40c-3.524,11.083-1.093,27.4-.789,39,.115,4.384.889,9.213,5.093,11.542C79.588,99.118,77,71.351,77,64Z" fill="#fffefe"/><path d="M72,33l1,1-1-1m33,0,1,1Z" fill="#ff9b9b"/><path d="M118,71c0-8.328,3.763-29.37-2.434-35.566C104.542,24.41,100.421,43.676,101.059,51,101.745,58.883,111.941,66.732,118,71Z" fill="#fffefe"/><path d="M113,33l1,1Z" fill="#ff9b9b"/><path d="M207,34.028c-5.737,2.859-10.519,9.491-15,13.972-9.229,9.229-21,18.3-28.486,29-5.488,7.847.987,17.871,10.486,14.258,5.517-2.1,9.933-8.191,14-12.258,9.528-9.529,26.052-20.867,31.968-33C223.828,38.085,214.4,30.339,207,34.028Z" fill="#fffefe"/><path d="M215,33l1,1-1-1m-10,1,1,1-1-1m12,0,1,1-1-1M75,35l1,1-1-1m129,0,1,1-1-1m14,0,1,1-1-1M76,36l1,1-1-1m127,0,1,1-1-1M60,37l1,1-1-1m17,0,1,1-1-1m24,0,1,1-1-1m16,0,1,1-1-1m85,0,1,1-1-1M78,38l1,1-1-1m123,0,1,1-1-1m19.333.667.334.667-.334-.667m-161,1,.333.667-.333-.667M79,39l1,1-1-1m39,0V72h1l-1-33m82,0,1,1-1-1M80,40l1,1-1-1m20,0V54h1l-1-14m99,0,1,1-1-1M81,41l1,1-1-1m117,0,1,1-1-1M82,42l1,1-1-1m115,0,1,1-1-1M83,43l1,1-1-1m113,0,1,1-1-1M84,44l1,1-1-1m111,0,1,1-1-1M85,45l1,1-1-1m109,0,1,1-1-1M86,46l1,1-1-1m107,0,1,1-1-1m-1,1,1,1-1-1m-1,1,1,1-1-1m-1,1,1,1-1-1m-1,1,1,1-1-1m-1,1,1,1-1-1m-1,1,1,1-1-1m-1,1,1,1Z" fill="#ff9b9b"/><path d="M220,53c-4.606,4.606-9.649,9.022-13.852,14-5.574,6.6-5.469,28.626,7.837,25.387C224.253,89.888,223.245,60.733,220,53Z" fill="#fffefe"/><path d="M185,54l1,1-1-1m-1,1,1,1-1-1M77,64V85h1L77,64m41,15v7h1l-1-7m43.333.667.334.667-.334-.667m-102,5,.333.667-.333-.667m102,2,.334.667-.334-.667m59,0,.334.667-.334-.667M60,87l1,1-1-1m16,0,1,1-1-1m41,0,1,1-1-1m86,0,1,1-1-1M75,88l1,1-1-1m41,0,1,1-1-1m46,0,1,1-1-1m57,0,1,1-1-1M74,89l1,1-1-1m41,0,1,1-1-1m89,0,1,1-1-1M63,90l1,1-1-1m10,0,1,1-1-1m31,0,1,1-1-1m10,0,1,1-1-1m91,0,1,1-1-1M64.667,91.333l.667.333-.667-.333M71,91l1,1-1-1m35.667.333.666.333-.666-.333m5,0,.666.333-.666-.333M165,91l1,1-1-1m9,0,1,1-1-1m-7,1v1h6l-6-1m41.667.333.666.333-.666-.333m6,0,.666.333Z" fill="#ff9b9b"/><path d="M56,147.428c-57.442,8.229-78.425,88.417-27,120.1C49.456,280.138,72.983,278,96,278h84c16.131,0,33.074,1.479,49-1.464,56.113-10.369,70.833-89.886,22-119.609C230.455,144.421,207.022,147,184,147H100C85.652,147,70.209,145.393,56,147.428Z" fill="#f33"/><path d="M66,186l3-1Z" fill="#ff9b9b"/><path d="M62,224c6.256-4.407,17.234-12.873,17.941-21,.656-7.53-3.107-26.518-14.547-16.347C58.027,193.2,62,214.9,62,224Z" fill="#fffefe"/><path d="M73.667,184.333l.667.334-.667-.334M110,184v1h6l-6-1m-35,1,1,1-1-1m33,0,1,1Z" fill="#ff9b9b"/><path d="M109,185.742c-5.516,2.1-9.934,8.192-14,12.258-9.9,9.9-23.959,20.128-31.4,32-4.168,6.654,2.591,16.351,10.4,14.013,5.517-1.653,10.076-8.089,14-12.013,10.183-10.183,24.695-20.729,32.258-33C125.076,191.182,117.437,182.536,109,185.742Z" fill="#fffefe"/><path d="M117,185l1,1-1-1m1,1,1,1-1-1m69.667.333.666.334Z" fill="#ff9b9b"/><path d="M189,186.616c-5.1,1.186-6.84,5.657-6.989,10.384-.4,12.661-2.336,28.608.264,41,1.074,5.121,5.658,7.726,10.706,6.722,4.863-.968,6.71-5.189,6.972-9.718.7-12.182,2.918-30.25-.391-41.985A9.172,9.172,0,0,0,189,186.616Z" fill="#fffefe"/><path d="M193,186l1,1-1-1m2,1,1,1-1-1M63,188l1,1-1-1m57,0,1,1-1-1m64,0,1,1-1-1M62.333,189.667l.333.666-.333-.666M79,189l1,1-1-1m42.333.667.334.666-.334-.666M182,191l1,1-1-1m17,0,1,1-1-1m-77,2,1,1-1-1m59,1v43h1c0-12.219,3.71-31.774-1-43m-60,3,1,1-1-1m-2,3,1,1-1-1m-1,1,1,1-1-1m-1,1,1,1-1-1m-1,1,1,1-1-1m-1,1,1,1-1-1m-1,1,1,1-1-1m-1,1,1,1-1-1m-1,1,1,1-1-1m-1,1,1,1-1-1m-1,1,1,1-1-1m-1,1,1,1-1-1m-1,1,1,1-1-1m-1,1,1,1-1-1m-1,1,1,1-1-1m-1,1,1,1-1-1m-1,1,1,1-1-1m-1,1,1,1-1-1m-1,1,1,1-1-1m-1,1,1,1-1-1m-1,1,1,1-1-1m-1,1,1,1-1-1m-1,1,1,1-1-1m-1,1,1,1-1-1m-1,1,1,1Z" fill="#ff9b9b"/><path d="M95,224l1,1-1-1m-1,1,1,1-1-1m-1,1,1,1-1-1m-1,1,1,1-1-1m-1,1,1,1-1-1m-1,1,1,1-1-1m-1,1,1,1-1-1m-1,1,1,1-1-1m-1,1,1,1-1-1m-1,1,1,1-1-1m-1,1,1,1-1-1m-1,1,1,1-1-1m-1,1,1,1-1-1m-20.667,1.667.333.666-.333-.666M82,237l1,1-1-1m-1,1,1,1-1-1m-1,1,1,1-1-1m119,0,1,1-1-1M63,240l1,1-1-1m16,0,1,1-1-1m103,0,1,1-1-1M64,241l1,1-1-1m14,0,1,1-1-1m105,0,1,1-1-1m15,0,1,1-1-1M65,242l1,1-1-1m12,0,1,1-1-1m-10,1,1,1-1-1m9,0,1,1-1-1m120,0,1,1-1-1M69.667,244.333l.667.334-.667-.334m4,0,.667.334-.667-.334M186,244l1,1-1-1m9,0,1,1-1-1m-7,1v1h5Z" fill="#ff9b9b"/></g></svg>