<svg xmlns="http://www.w3.org/2000/svg" width="351.51" height="249.583" viewBox="0 0 351.51 249.583">
  <g id="Group_38" data-name="Group 38" transform="translate(-13158.051 2053.958)">
    <g id="Group_36" data-name="Group 36" transform="translate(13158.051 -2053.954)">
      <path id="Path_38" data-name="Path 38" d="M1582.148,251.44c-.16-16.591-.341-35.4-.341-53.2,0-8.29-6.13-17.586-14.926-17.671-79.521-.779-141.513-.978-213.3-1.206-24.4-.079-49.96-.159-77.758-.267-2.977-.011-5.89-7.858-7.459-12.071-.5-1.342-.966-2.61-1.435-3.747-.339-1.109-.675-2.138-1-3.121a35.964,35.964,0,0,1-1.733-6.573,5.527,5.527,0,0,1,1.119-4.35,10.71,10.71,0,0,1,7.051-3.491h278.942a8.824,8.824,0,0,0,0-17.648H1271.881a8.676,8.676,0,0,0-.869.04c-7.993.8-15.134,4.52-19.6,10.217a23.159,23.159,0,0,0-4.685,17.757,52.457,52.457,0,0,0,2.479,9.706c.306.933.629,1.9.953,2.979a9.14,9.14,0,0,0,.314.875c.414,1,.836,2.127,1.347,3.5,3.047,8.222,8.722,23.522,23.938,23.584,25.684.1,49.466.176,72.181.25l5.589.017c71.02.227,132.442.421,210.622,1.165v.057c0,17.495.17,35.456.342,52.843v.523c.339,35.126.688,71.441-.327,106.812a2.384,2.384,0,0,1-.6.506c-106.032,1.467-181.192,1.467-287.055.011-7.221-1.2-14.275-7.244-15.164-12.833-.954-9.194-.615-18.831-.283-28.3.168-4.822.34-9.8.34-14.76a8.828,8.828,0,1,0-17.656,0c0,4.753-.175,9.819-.333,14.357-.349,9.933-.711,20.207.37,30.436l.067.591c2.082,13.9,15.306,25.967,30.754,28.07a10.235,10.235,0,0,0,1.063.08c55.283.762,99.711,1.1,144.076,1.1s88.791-.341,143.945-1.1c9.479,0,18.118-8.364,18.112-17.416C1582.843,323.654,1582.488,287.072,1582.148,251.44Z" transform="translate(-1243.063 -128.099)" fill="#48d1cc"/>
      <path id="Path_39" data-name="Path 39" d="M1373.726,201.547h-64.107c-3.418,0-5.965-2.126-5.965-4.031V167.552c0-1.9,2.548-4.025,5.965-4.025h64.107a7.671,7.671,0,1,0,0-15.341h-64.107c-11.618,0-21.061,8.688-21.061,19.366v29.964c0,10.678,9.444,19.365,21.061,19.365h64.107a7.667,7.667,0,1,0,0-15.335Z" transform="translate(-1029.887 -33.977)" fill="#48d1cc"/>
      <path id="Path_40" data-name="Path 40" d="M1302.9,152.705a8.64,8.64,0,1,0,8.888,8.636A8.776,8.776,0,0,0,1302.9,152.705Z" transform="translate(-1004.309 -12.802)" fill="#48d1cc"/>
    </g>
  </g>
</svg>
